<svg id="Capa_1" enable-background="new 0 0 511.507 511.507" height="512" viewBox="0 0 511.507 511.507" width="512" xmlns="http://www.w3.org/2000/svg"><g><g><path d="m495.684 427.549h-480.009c-4.515 0-8.176 3.66-8.176 8.176v22.999c0 14.046 11.387 25.433 25.433 25.433h445.494c14.046 0 25.433-11.387 25.433-25.433v-22.998c0-4.517-3.66-8.177-8.175-8.177z" fill="#acacac"/></g><g><path d="m503.859 435.721v23c0 14.05-11.39 25.43-25.43 25.43h-20c14.04 0 25.43-11.38 25.43-25.43v-23c0-4.51-3.66-8.17-8.18-8.17h20c4.52 0 8.18 3.66 8.18 8.17z" fill="#9c9c9c"/></g><g><path d="m281.576 454.215h-51.793c-3.5 0-6.337-2.837-6.337-6.337v-20.297h64.467v20.297c0 3.5-2.837 6.337-6.337 6.337z" fill="#838383"/></g><g><path d="m475.76 427.581h-439.962v-272c0-7.231 5.862-13.094 13.094-13.094h413.775c7.231 0 13.094 5.862 13.094 13.094v272z" fill="#5a5a5a"/></g><g><path d="m475.759 155.581v272h-20v-272c0-7.23-5.86-13.09-13.09-13.09h20c7.23 0 13.09 5.86 13.09 13.09z" fill="#444"/></g><g><path d="m430.329 390.556h-349.1c-6.627 0-12-5.373-12-12v-187.044c0-6.627 5.373-12 12-12h349.1c6.627 0 12 5.373 12 12v187.044c0 6.627-5.372 12-12 12z" fill="#c4e2ff"/></g><g><path d="m442.329 191.511v187.04c0 6.63-5.37 12-12 12h-19.39c6.62 0 12-5.37 12-12v-187.04c0-6.63-5.38-12-12-12h19.39c6.631 0 12 5.37 12 12z" fill="#a5d5f9"/></g><g><g><circle cx="421.702" cy="129.675" fill="#97d729" r="82.306"/></g><g><path d="m504.003 129.679c0 45.45-36.85 82.3-82.3 82.3-17.62 0-33.95-5.54-47.34-14.97 9.3 3.64 19.42 5.64 30.01 5.64 45.45 0 82.3-36.85 82.3-82.31 0-27.83-13.82-52.44-34.97-67.33 30.62 12 52.3 41.8 52.3 76.67z" fill="#8bc727"/></g><g><path d="m445.436 94.88-36.533 36.533c-.317.317-.83.317-1.147 0l-9.79-9.79c-5.494-5.494-14.401-5.494-19.895 0-5.494 5.494-5.494 14.401 0 19.895l24.819 24.819c3.003 3.003 7.872 3.003 10.875 0l51.565-51.563c5.494-5.494 5.494-14.401 0-19.895-5.493-5.493-14.4-5.493-19.894.001z" fill="#e2e2e2"/></g><g><path d="m465.333 114.779-51.57 51.56c-3 3-7.87 3-10.87 0l-6.92-6.92c2.58.53 5.36-.21 7.36-2.21l54.3-54.48c2.84-2.85 4.29-6.58 4.34-10.33 1.21.64 2.34 1.47 3.36 2.48 5.49 5.49 5.49 14.4 0 19.9z" fill="#cecece"/></g></g><g><g><g><path d="m266.154 296.396h-132.464c-7.591 0-13.745-6.154-13.745-13.745v-241.554c0-7.591 6.154-13.745 13.745-13.745h132.464c7.591 0 13.746 6.154 13.746 13.745v241.553c0 7.592-6.155 13.746-13.746 13.746z" fill="#eaf6ff"/></g><g><path d="m279.9 41.1v241.554c0 7.59-6.151 13.741-13.748 13.741h-20c7.597 0 13.748-6.151 13.748-13.741v-241.554c0-7.597-6.151-13.748-13.748-13.748h20c7.597 0 13.748 6.151 13.748 13.748z" fill="#d8ecfe"/></g><g><path d="m266.154 296.396h-132.464c-7.591 0-13.745-6.154-13.745-13.745v-32.522h159.955v32.522c0 7.591-6.155 13.745-13.746 13.745z" fill="#5a5a5a"/></g><g><path d="m279.9 250.129v32.525c0 7.59-6.151 13.741-13.748 13.741h-20c7.597 0 13.748-6.151 13.748-13.741v-32.525z" fill="#444"/></g><g><path d="m199.922 27.352h-44.162l4.295 18.964c.887 3.915 4.365 6.694 8.379 6.694h31.488 31.488c4.014 0 7.493-2.779 8.379-6.694l4.295-18.964z" fill="#5a5a5a"/></g><g><path d="m244.087 27.352-4.295 18.961c-.887 3.921-4.373 6.694-8.381 6.694h-21.88c4.016 0 7.494-2.773 8.381-6.694l4.295-18.961z" fill="#444"/></g></g></g><g><path d="m495.684 420.049h-12.424v-225.05c17.38-16.387 28.247-39.609 28.247-65.324 0-49.519-40.287-89.806-89.806-89.806-20.963 0-41.365 7.378-57.448 20.775-3.182 2.651-3.613 7.381-.962 10.563s7.38 3.613 10.563.962c13.393-11.156 30.385-17.301 47.847-17.301 41.248 0 74.806 33.558 74.806 74.806s-33.558 74.806-74.806 74.806-74.806-33.558-74.806-74.806c0-11.387 2.49-22.316 7.401-32.485 1.801-3.73.237-8.214-3.492-10.016-3.734-1.804-8.214-.238-10.016 3.492-5.901 12.221-8.894 25.345-8.894 39.009 0 1.784.058 3.554.161 5.313h-44.655v-93.89c0-11.715-9.531-21.245-21.246-21.245h-132.464c-11.715 0-21.246 9.53-21.246 21.245v93.89h-63.552c-11.355 0-20.594 9.238-20.594 20.594v176.923c0 4.143 3.358 7.5 7.5 7.5s7.5-3.357 7.5-7.5v-176.923c0-3.084 2.509-5.594 5.594-5.594h63.553v22.025h-31.216c-10.752 0-19.5 8.748-19.5 19.5v187.043c0 10.752 8.748 19.5 19.5 19.5h349.101c10.752 0 19.5-8.748 19.5-19.5v-163.591c6.501-2.15 12.678-5.018 18.431-8.52v213.605h-424.963v-52.92c0-4.143-3.358-7.5-7.5-7.5s-7.5 3.357-7.5 7.5v52.92h-12.623c-8.643 0-15.675 7.032-15.675 15.675v22.998c0 18.159 14.773 32.933 32.933 32.933h445.494c18.159 0 32.933-14.773 32.933-32.933v-22.998c-.001-8.643-7.032-15.675-15.676-15.675zm-208.284-270.062h46.813c1.805 7.775 4.625 15.165 8.309 22.025h-55.122zm-52.705-115.135-2.221 9.807c-.113.501-.551.851-1.064.851h-62.976c-.513 0-.951-.35-1.064-.851l-2.221-9.807zm-107.251 6.245c0-3.443 2.802-6.245 6.246-6.245h16.078l2.971 13.119c1.671 7.382 8.125 12.538 15.694 12.538h62.976c7.568 0 14.022-5.155 15.694-12.538l2.971-13.119h16.079c3.444 0 6.246 2.802 6.246 6.245v201.531h-144.955zm0 216.532h144.956v25.022c0 3.443-2.802 6.245-6.246 6.245h-132.464c-3.444 0-6.246-2.802-6.246-6.245zm307.386 120.926c0 2.481-2.019 4.5-4.5 4.5h-349.101c-2.481 0-4.5-2.019-4.5-4.5v-187.043c0-2.481 2.019-4.5 4.5-4.5h31.215v95.639c0 11.715 9.531 21.245 21.246 21.245h132.464c11.715 0 21.246-9.53 21.246-21.245v-95.639h65.237c16.486 19.824 41.326 32.468 69.064 32.468 4.459 0 8.841-.332 13.128-.962v160.037zm-203.884 56.526h49.468v11.635h-49.468zm265.413 23.641c0 9.888-8.045 17.933-17.933 17.933h-445.493c-9.888 0-17.933-8.045-17.933-17.933v-22.998c0-.373.303-.676.675-.676l200.271.032v12.797c0 7.63 6.208 13.838 13.837 13.838h51.792c7.63 0 13.838-6.208 13.838-13.838v-12.797l200.271-.032c.372 0 .675.303.675.676z"/><path d="m397.587 171.641c2.962 2.961 6.851 4.441 10.741 4.441s7.78-1.48 10.74-4.441l51.566-51.563c8.408-8.409 8.408-22.092-.001-30.502-8.408-8.408-22.093-8.407-30.501 0 0 0 0 0-.001 0l-31.801 31.804-5.06-5.059c-4.073-4.074-9.489-6.318-15.251-6.318-5.761 0-11.177 2.244-15.25 6.317-4.074 4.073-6.317 9.489-6.317 15.251 0 5.761 2.243 11.177 6.316 15.251zm-14.212-44.714c1.24-1.241 2.89-1.925 4.644-1.925 1.755 0 3.403.684 4.645 1.925l9.789 9.789c3.24 3.24 8.514 3.24 11.754 0l36.532-36.533c2.563-2.561 6.729-2.56 9.289-.001 2.561 2.562 2.561 6.729.001 9.289l-51.566 51.563c-.072.074-.195.074-.268 0l-24.819-24.819c-1.241-1.24-1.924-2.89-1.924-4.644 0-1.755.682-3.403 1.923-4.644z"/><ellipse cx="159.965" cy="154.031" rx="11.543" ry="11.543" transform="matrix(.987 -.16 .16 .987 -22.607 27.613)"/><ellipse cx="199.922" cy="154.031" rx="11.543" ry="11.543" transform="matrix(.383 -.924 .924 .383 -18.891 279.789)"/><circle cx="239.879" cy="154.031" r="11.543"/></g></g></svg>