<?xml version="1.0" encoding="iso-8859-1"?>
<!-- Generator: Adobe Illustrator 19.0.0, SVG Export Plug-In . SVG Version: 6.00 Build 0)  -->
<svg version="1.1" id="Layer_1" xmlns="http://www.w3.org/2000/svg" xmlns:xlink="http://www.w3.org/1999/xlink" x="0px" y="0px"
	 viewBox="0 0 511.994 511.994" style="enable-background:new 0 0 511.994 511.994;" xml:space="preserve">
<path style="fill:#415E72;" d="M255.997,443.677c94.333-0.008,170.803-76.494,170.795-170.827
	c-0.008-53.756-25.309-104.365-68.311-136.623V56.754c119.321,56.598,170.17,199.218,113.572,318.539
	s-199.218,170.17-318.539,113.572S-16.657,289.647,39.941,170.326c23.627-49.824,63.748-89.945,113.572-113.572v79.457
	c-75.477,56.598-90.778,163.661-34.18,239.13C151.592,418.36,202.225,443.677,255.997,443.677z"/>
<path style="fill:#E04F5F;" d="M255.997,272.866c-18.791,0.072-34.092-15.1-34.164-33.892c0-0.056,0-0.112,0-0.168V33.639
	c0.288-18.863,15.821-33.924,34.684-33.635c18.455,0.28,33.355,15.18,33.635,33.635v205.167
	C290.04,257.605,274.796,272.81,255.997,272.866z"/>
<g>
</g>
<g>
</g>
<g>
</g>
<g>
</g>
<g>
</g>
<g>
</g>
<g>
</g>
<g>
</g>
<g>
</g>
<g>
</g>
<g>
</g>
<g>
</g>
<g>
</g>
<g>
</g>
<g>
</g>
</svg>
